<?xml version="1.0" standalone="no"?>
<!DOCTYPE svg PUBLIC "-//W3C//DTD SVG 20010904//EN"
 "http://www.w3.org/TR/2001/REC-SVG-20010904/DTD/svg10.dtd">
<svg version="1.0" xmlns="http://www.w3.org/2000/svg"
 width="512.000000pt" height="512.000000pt" viewBox="0 0 512.000000 512.000000"
 preserveAspectRatio="xMidYMid meet">

<g transform="translate(0.000000,512.000000) scale(0.100000,-0.100000)"
fill="#000000" stroke="none">
<path d="M1900 4010 c0 -5 -7 -10 -15 -10 -8 0 -15 -4 -15 -10 0 -5 -10 -20
-22 -32 -18 -18 -23 -33 -21 -72 0 -27 5 -51 10 -55 22 -16 34 -64 23 -96 -10
-29 -16 -33 -58 -39 -26 -3 -55 -14 -64 -24 -32 -33 -47 -42 -87 -48 -22 -4
-55 -17 -73 -30 -17 -13 -38 -24 -45 -24 -7 0 -13 -5 -13 -10 0 -14 -49 -32
-63 -23 -7 5 -12 35 -12 76 0 37 -5 71 -11 75 -5 4 -16 21 -23 39 -16 39 -64
59 -119 48 -20 -4 -68 -8 -106 -9 -61 -1 -70 -4 -79 -24 -6 -12 -14 -22 -19
-22 -4 0 -8 -6 -8 -13 0 -12 -20 -36 -55 -65 -24 -20 -18 -35 10 -28 27 7 30
-1 26 -56 -1 -16 1 -28 4 -28 15 0 45 22 45 33 0 7 12 23 25 36 15 14 25 34
25 52 0 24 29 69 44 69 2 0 6 -29 8 -65 5 -53 11 -70 31 -91 32 -32 26 -50
-19 -58 -19 -4 -34 -11 -34 -15 0 -5 -11 -12 -25 -15 -14 -4 -35 -18 -47 -31
-12 -14 -25 -25 -30 -25 -5 0 -29 -20 -54 -45 -24 -25 -48 -45 -52 -45 -4 0
-29 -23 -56 -51 -48 -49 -49 -50 -43 -101 4 -28 10 -54 15 -57 5 -3 14 -23 21
-43 7 -20 18 -41 26 -48 7 -6 16 -22 19 -35 4 -14 10 -25 15 -25 5 0 14 -13
21 -30 7 -16 16 -30 20 -30 4 0 11 -25 15 -55 4 -39 11 -55 21 -55 23 0 44
-25 44 -52 1 -27 22 -58 39 -58 9 0 11 -12 6 -42 -4 -24 -11 -45 -15 -48 -4
-3 -10 -26 -14 -52 -4 -26 -13 -53 -20 -60 -7 -7 -16 -25 -19 -40 -6 -23 -14
-28 -54 -34 -46 -7 -55 -11 -94 -46 -10 -10 -23 -18 -27 -18 -7 0 -59 -45
-124 -107 -10 -9 -18 -22 -18 -29 0 -7 -14 -18 -30 -26 -16 -7 -30 -16 -30
-20 0 -5 -20 -8 -45 -8 -25 0 -45 5 -45 10 0 6 -20 10 -45 10 -40 0 -45 -3
-51 -26 -9 -36 2 -148 15 -152 6 -2 11 -27 11 -56 0 -66 16 -113 48 -143 31
-28 33 -28 60 0 14 15 22 36 22 60 0 20 4 37 9 37 4 0 11 21 14 47 3 26 11 52
19 57 8 6 18 22 21 37 4 16 18 30 41 39 19 7 37 19 40 27 3 7 12 13 21 13 8 0
15 5 15 11 0 5 13 15 30 20 16 6 30 15 30 20 0 4 18 14 40 20 22 7 40 16 40
20 0 4 17 13 38 20 20 6 41 18 45 25 4 8 15 14 22 14 8 0 15 4 15 9 0 5 14 11
31 15 33 6 79 43 79 63 0 7 6 16 13 20 7 4 18 24 23 43 11 39 31 45 48 15 6
-10 17 -25 23 -33 20 -21 26 -59 20 -130 -3 -39 -11 -70 -19 -76 -8 -6 -20
-26 -27 -43 -7 -18 -17 -33 -21 -33 -4 0 -11 -11 -14 -24 -8 -31 -84 -106
-108 -106 -10 0 -18 -4 -18 -8 0 -4 -13 -13 -30 -19 -26 -10 -30 -16 -30 -47
0 -20 4 -36 9 -36 5 0 13 -9 16 -20 3 -11 12 -26 18 -33 19 -21 53 -71 60 -89
3 -9 19 -25 34 -35 15 -9 32 -23 36 -30 4 -7 15 -13 22 -13 8 0 15 -5 15 -11
0 -16 42 -6 54 13 7 12 7 34 -2 76 -24 117 -15 216 26 260 6 7 12 20 12 28 0
34 19 10 30 -38 7 -29 18 -56 24 -60 16 -11 14 -137 -2 -147 -19 -12 -21 -99
-2 -111 8 -5 40 -10 72 -10 31 0 58 -4 60 -9 2 -5 42 -12 91 -16 84 -7 87 -6
87 14 0 12 -4 21 -10 21 -5 0 -10 7 -10 16 0 9 -9 18 -19 21 -11 3 -22 11 -25
19 -3 8 -11 14 -18 14 -19 0 -56 43 -63 73 -4 14 -13 28 -21 31 -7 3 -17 23
-20 46 -4 22 -10 40 -14 40 -4 0 -10 27 -14 60 -4 33 -11 60 -16 60 -6 0 -10
25 -10 55 0 30 4 55 10 55 5 0 13 12 16 27 4 15 12 34 18 41 30 39 98 102 123
114 21 10 31 25 40 61 6 26 19 54 27 63 9 8 16 19 16 23 0 4 9 19 21 32 11 13
23 36 26 51 3 16 12 28 19 28 8 0 14 6 14 14 0 8 7 16 15 20 8 3 15 12 15 21
0 8 9 15 20 15 11 0 20 -4 20 -9 0 -4 27 -14 60 -21 33 -7 60 -16 60 -20 0 -4
14 -10 30 -13 17 -4 30 -13 30 -21 0 -8 -13 -17 -30 -21 -16 -4 -30 -11 -30
-16 0 -5 -11 -14 -25 -19 -14 -5 -25 -16 -25 -24 0 -8 -6 -19 -14 -23 -16 -9
-66 -99 -66 -119 0 -8 -4 -14 -9 -14 -5 0 -12 -9 -16 -20 -5 -17 -22 -29 -92
-64 -13 -6 -23 -14 -23 -18 0 -3 -14 -9 -31 -13 -17 -4 -33 -13 -36 -21 -3 -7
-20 -16 -39 -20 -19 -3 -36 -14 -39 -24 -6 -20 3 -50 16 -50 5 0 9 -7 9 -16 0
-8 18 -34 40 -56 22 -23 40 -51 40 -63 0 -12 9 -30 20 -40 11 -10 20 -24 20
-30 0 -7 15 -19 33 -26 17 -7 37 -19 43 -27 7 -10 20 -12 43 -7 33 7 33 8 28
52 -3 25 -10 49 -16 52 -18 11 -16 180 2 194 8 7 17 24 21 38 4 17 17 31 36
39 16 7 30 16 30 20 0 5 13 11 29 15 16 3 37 15 47 26 9 10 21 19 26 19 12 0
83 73 91 93 3 9 13 17 22 17 8 0 15 5 15 10 0 6 5 10 11 10 7 0 29 17 50 38
34 33 39 43 39 84 0 26 -4 49 -9 52 -5 3 -12 17 -15 32 -7 25 -51 74 -67 74
-5 0 -9 7 -9 15 0 9 -6 18 -14 21 -8 3 -17 15 -20 27 -6 24 -72 97 -88 97 -6
0 -19 11 -30 25 -11 14 -24 25 -29 25 -36 0 -52 77 -24 114 8 11 15 27 15 35
0 9 17 30 37 46 21 17 50 42 64 58 15 15 30 27 33 27 3 0 23 16 43 35 55 50
67 60 102 86 17 12 31 31 31 40 0 10 5 19 11 21 7 2 8 11 0 28 -5 14 -12 37
-15 53 -5 22 -12 27 -36 27 -17 0 -30 -3 -30 -7 0 -5 -13 -15 -28 -24 -16 -9
-36 -32 -46 -52 -9 -20 -34 -53 -54 -73 l-37 -36 -3 73 c-2 40 -7 76 -11 79
-5 3 -16 22 -24 43 -9 20 -21 37 -26 37 -6 0 -11 17 -11 38 0 26 6 41 20 50
11 7 20 21 20 31 0 12 9 21 25 25 14 4 25 13 25 20 0 8 4 16 9 18 5 2 13 30
16 64 6 46 4 64 -7 75 -8 8 -18 32 -22 52 -4 21 -13 40 -21 43 -8 3 -17 14
-20 25 -4 10 -15 19 -26 19 -10 0 -19 5 -19 10 0 6 -25 10 -55 10 -30 0 -55
-4 -55 -10z m-230 -602 c0 -13 -7 -32 -15 -42 -14 -18 -15 -17 -15 22 0 31 4
42 15 42 9 0 15 -9 15 -22z m-520 -204 c7 -35 16 -64 21 -64 5 0 9 -18 9 -40
0 -22 -4 -40 -8 -40 -4 0 -14 -16 -21 -35 -7 -19 -16 -35 -21 -35 -4 0 -13
-14 -19 -31 -14 -41 -34 -32 -44 19 -4 23 -12 42 -16 42 -5 0 -11 15 -15 32
-4 18 -16 52 -27 75 -16 33 -18 46 -9 62 6 12 15 21 21 21 5 0 19 9 31 20 12
11 27 20 34 20 6 0 14 7 18 15 12 31 34 2 46 -61z m340 -12 c0 -13 59 -34 78
-28 13 5 22 -1 30 -19 6 -14 16 -25 22 -25 19 0 11 -65 -10 -80 -11 -8 -20
-20 -20 -26 0 -6 -7 -17 -16 -24 -11 -10 -14 -23 -8 -54 3 -23 11 -44 17 -48
16 -10 14 -147 -2 -157 -8 -5 -16 -48 -22 -115 -5 -59 -14 -112 -19 -119 -6
-7 -17 -21 -24 -31 -15 -22 -36 -14 -36 15 0 10 -4 19 -9 19 -5 0 -14 23 -21
50 -7 28 -15 50 -19 50 -4 0 -14 18 -21 40 -7 22 -17 40 -22 40 -12 0 -10 28
3 32 6 2 14 34 19 72 5 38 14 73 22 77 10 6 12 38 10 138 -2 82 1 132 8 136 5
3 10 19 10 36 0 19 5 29 15 29 8 0 15 -3 15 -8z"/>
<path d="M3008 3913 c-16 -2 -28 -8 -28 -13 0 -5 -9 -12 -20 -15 -11 -3 -20
-15 -20 -26 0 -10 -6 -19 -14 -19 -19 0 -26 -32 -26 -125 0 -73 -2 -82 -24
-98 -13 -10 -27 -29 -30 -43 -4 -13 -13 -24 -20 -24 -20 0 -76 -49 -76 -66 0
-8 -7 -14 -15 -14 -8 0 -15 -7 -15 -15 0 -8 -4 -15 -10 -15 -6 0 -10 -47 -10
-120 0 -73 4 -120 10 -120 13 0 13 -223 0 -236 -15 -15 -17 -371 -2 -386 8 -8
12 -56 12 -159 l0 -146 -62 -7 c-37 -5 -71 -15 -86 -27 -14 -10 -30 -19 -37
-19 -7 0 -26 -13 -43 -30 -27 -26 -40 -30 -85 -30 -83 0 -87 -9 -87 -174 l0
-138 34 -34 c26 -26 42 -34 70 -34 33 0 36 2 36 30 0 17 5 30 10 30 6 0 10 15
10 33 1 49 25 130 41 135 8 3 17 11 21 17 5 7 39 16 78 20 38 4 70 11 70 16 0
5 9 9 20 9 11 0 20 5 20 10 0 6 23 10 50 10 28 0 50 5 50 10 0 6 9 10 19 10
24 0 57 54 66 109 4 24 13 45 20 47 7 3 16 21 19 40 4 19 11 34 16 34 6 0 10
11 10 24 0 32 13 39 31 18 12 -15 20 -28 47 -84 2 -5 -1 -8 -7 -8 -11 0 -101
-88 -101 -100 0 -3 -30 -38 -67 -76 l-68 -69 -80 -5 -80 -5 -3 -45 c-3 -32 1
-48 13 -56 11 -8 20 -37 26 -86 5 -40 14 -74 19 -76 6 -2 10 -9 10 -15 0 -20
48 -59 67 -55 15 3 19 16 21 76 2 39 7 72 12 72 6 0 10 9 10 21 0 12 8 23 20
26 15 4 20 14 20 39 0 33 28 74 50 74 6 0 26 17 45 37 19 20 35 32 35 26 0
-19 -22 -63 -32 -63 -4 0 -8 -29 -8 -65 0 -37 4 -65 10 -65 6 0 10 -7 10 -15
0 -9 7 -18 16 -22 17 -6 64 15 64 30 0 5 20 30 45 55 l45 45 0 -37 c0 -20 4
-36 9 -36 5 0 12 -21 16 -46 3 -25 12 -47 20 -50 7 -3 16 -17 20 -32 4 -15 11
-29 16 -33 5 -3 12 -52 15 -110 8 -155 5 -149 64 -149 28 0 50 5 50 10 0 6 13
10 29 10 39 0 61 9 61 26 0 9 11 14 29 14 38 0 93 19 109 38 15 20 16 84 0
100 -14 14 -78 16 -78 2 0 -5 -16 -10 -35 -10 -19 0 -35 4 -35 8 0 5 -11 22
-25 38 -14 16 -25 35 -25 42 0 6 -4 12 -9 12 -5 0 -13 45 -16 100 -4 55 -11
100 -16 100 -5 0 -9 24 -9 54 0 60 6 66 70 66 21 0 40 4 42 9 2 5 58 13 126
17 107 6 122 5 122 -9 0 -9 6 -22 13 -29 7 -7 19 -35 27 -63 7 -27 18 -53 23
-57 6 -3 12 -68 14 -143 2 -76 6 -142 9 -147 10 -16 103 1 127 22 12 12 35 20
54 20 18 0 33 5 33 10 0 6 7 10 15 10 41 0 97 53 99 94 1 28 -2 31 -24 28 -83
-10 -152 -6 -163 9 -7 8 -20 18 -29 22 -13 4 -18 17 -18 41 0 19 -6 36 -12 38
-17 6 -19 365 -2 376 7 4 17 33 24 65 7 31 17 57 22 57 4 0 8 9 8 20 0 11 3
20 6 20 9 0 30 -24 37 -42 3 -10 11 -18 16 -18 5 0 12 -13 16 -30 4 -16 12
-33 19 -37 7 -5 19 -25 25 -45 7 -21 16 -38 20 -38 5 0 14 -20 21 -45 7 -25
16 -45 20 -45 4 0 10 -45 12 -101 3 -56 10 -104 16 -108 6 -3 16 -28 22 -54 7
-26 16 -47 20 -47 4 0 13 -27 20 -60 7 -33 17 -60 21 -60 13 0 11 -58 -3 -80
-10 -16 -10 -22 -1 -28 6 -4 13 -21 15 -37 3 -29 5 -30 54 -30 43 1 55 5 81
32 16 17 44 34 62 38 17 3 31 11 31 16 0 5 11 14 25 19 14 5 25 16 25 25 0 8
5 15 10 15 15 0 12 70 -4 86 -17 16 -62 19 -71 4 -8 -13 -65 -13 -65 0 0 6
-16 10 -35 10 -31 0 -35 3 -35 25 0 14 -3 25 -7 25 -5 0 -8 28 -9 63 -1 78
-21 201 -34 205 -6 2 -10 42 -10 88 0 97 -20 274 -30 274 -4 0 -13 27 -20 60
-7 33 -16 60 -20 60 -5 0 -14 24 -20 53 -7 28 -16 57 -20 62 -4 6 -11 25 -15
43 -6 30 -5 33 17 31 46 -4 56 1 63 31 9 43 -1 66 -40 89 -34 20 -35 22 -35
81 0 46 3 60 15 60 7 0 18 6 22 14 4 7 25 19 46 25 20 7 37 16 37 21 0 4 29
11 65 15 60 6 65 8 65 30 0 31 -44 75 -75 75 -14 0 -25 -4 -25 -10 0 -5 -8
-10 -17 -10 -9 0 -27 -10 -40 -22 l-23 -21 0 31 c0 17 -6 37 -13 44 -7 7 -20
28 -28 46 -7 17 -17 32 -21 32 -5 0 -8 18 -8 40 0 27 -6 45 -21 59 -17 15 -20
26 -14 48 8 32 21 43 53 43 15 0 22 6 22 19 0 11 5 21 12 23 14 5 14 198 -1
207 -5 3 -10 15 -12 25 -2 10 -17 28 -32 40 -23 17 -43 21 -107 21 -71 0 -80
-2 -105 -27 -19 -20 -29 -41 -33 -74 -3 -26 -12 -54 -21 -63 -19 -19 -86 -41
-124 -41 -24 0 -42 23 -32 41 10 15 -7 79 -21 79 -7 0 -17 8 -23 18 -8 14 -24
17 -88 17 -67 0 -81 -3 -100 -22 -35 -35 -44 -60 -42 -121 2 -49 -2 -62 -23
-85 -14 -15 -30 -27 -37 -27 -6 0 -11 -11 -11 -25 0 -19 5 -25 23 -25 51 0 96
13 101 29 3 9 4 -3 2 -27 -3 -33 -12 -50 -38 -75 -19 -18 -40 -47 -47 -64 -7
-18 -17 -33 -22 -33 -5 0 -9 -5 -9 -11 0 -20 -71 -79 -95 -79 -13 0 -25 -4
-27 -9 -1 -5 -16 -11 -32 -13 -26 -3 -31 1 -40 32 -5 19 -14 38 -19 41 -5 4
-11 36 -14 73 -3 36 -9 66 -13 66 -4 0 -12 11 -18 24 -10 22 -7 29 23 59 19
19 35 44 35 55 0 12 5 24 10 27 6 3 10 17 10 31 0 15 6 24 15 24 12 0 15 14
15 65 0 50 -3 65 -14 65 -9 0 -16 12 -18 31 -2 19 -11 36 -23 43 -11 6 -22 14
-25 18 -7 9 -98 17 -132 11z m892 -275 c0 -9 9 -20 20 -23 11 -3 20 -13 20
-21 0 -8 5 -14 10 -14 16 0 12 -22 -7 -36 -28 -21 -43 -16 -54 16 -6 17 -15
30 -20 30 -5 0 -9 14 -9 30 0 17 5 30 10 30 6 0 10 8 10 18 0 14 2 15 10 2 5
-8 10 -23 10 -32z m-190 -111 c0 -7 -9 -23 -20 -35 -21 -22 -27 -52 -10 -52 6
0 10 -9 10 -20 0 -11 -4 -20 -10 -20 -5 0 -10 -4 -10 -10 0 -5 9 -10 20 -10
15 0 20 -7 20 -25 0 -29 17 -33 35 -8 16 22 33 9 41 -32 3 -19 10 -35 15 -35
5 0 9 -21 9 -46 0 -49 -16 -74 -49 -74 -12 0 -21 -4 -21 -10 0 -5 -9 -10 -20
-10 -26 0 -25 14 1 50 18 23 20 37 15 70 -7 45 -12 53 -68 110 -20 21 -40 49
-43 63 -9 34 11 95 33 100 33 9 52 7 52 -6z m131 -474 c2 -72 -3 -118 -12
-121 -5 -2 -9 -10 -9 -18 0 -8 -11 -24 -25 -36 -14 -12 -25 -28 -25 -35 0 -7
-4 -13 -9 -13 -13 0 -31 -82 -31 -144 0 -62 -15 -74 -31 -26 -6 17 -15 30 -19
30 -5 0 -12 10 -16 22 -3 12 -13 28 -21 36 -14 14 -9 81 8 92 4 3 9 46 11 95
3 85 4 90 26 93 12 2 22 7 22 12 0 5 16 12 35 16 19 3 35 10 35 14 0 8 21 16
48 19 7 1 12 -13 13 -36z m-411 2 c0 -14 -4 -25 -10 -25 -5 0 -10 4 -10 9 0 5
-3 16 -6 25 -4 11 -1 16 10 16 10 0 16 -9 16 -25z m-154 -35 c5 0 20 -12 33
-25 13 -14 27 -25 32 -25 12 0 49 -38 49 -50 0 -5 -4 -10 -10 -10 -5 0 -10 -6
-10 -13 0 -7 -15 -30 -34 -50 -43 -47 -56 -84 -56 -158 0 -33 -4 -59 -10 -59
-5 0 -10 -20 -10 -45 0 -25 -4 -45 -10 -45 -5 0 -10 8 -10 18 0 27 -23 72 -37
72 -7 0 -13 10 -13 23 -1 28 -22 108 -35 127 -5 8 -11 69 -13 136 l-4 121 28
-4 c16 -3 40 0 54 5 19 8 28 7 36 -4 6 -8 15 -14 20 -14z m230 -533 c8 -4 14
-12 14 -17 0 -5 15 -26 34 -45 19 -20 38 -44 41 -55 4 -11 11 -20 16 -20 5 0
14 -11 19 -25 5 -14 14 -25 20 -25 5 0 10 -7 10 -15 0 -10 -11 -15 -35 -15
-19 0 -35 5 -35 10 0 6 -18 10 -40 10 -22 0 -40 -4 -40 -9 0 -5 -22 -11 -50
-15 -27 -4 -50 -10 -50 -15 0 -4 -20 -12 -45 -18 -43 -10 -45 -9 -45 13 0 12
-5 24 -11 26 -6 2 4 20 22 39 19 20 41 46 49 59 8 13 23 32 33 42 9 10 17 21
17 26 0 4 11 20 25 36 14 16 25 34 26 40 0 6 3 4 6 -4 3 -8 12 -19 19 -23z"/>
</g>
</svg>
